<?xml version="1.0" encoding="UTF-8"?>
<svg id="Layer_2" xmlns="http://www.w3.org/2000/svg" viewBox="0 0 408.62 681.16">
  <defs>
    <style>
      .cls-1 {
        fill: #008040;
        stroke: #231f20;
        stroke-miterlimit: 10;
        stroke-width: 2px;
      }

      .cls-2, .cls-3 {
        fill: #231f20;
      }

      .cls-3 {
        font-family: MyriadPro-Regular, 'Myriad Pro';
        font-size: 18px;
      }

      .cls-4 {
        fill: #fff;
      }

      .cls-5 {
        fill: #ee2a24;
      }

      .cls-6 {
        fill: #f5844a;
      }

      .cls-7 {
        fill: #f9ed16;
      }

      .cls-8 {
        fill: #898989;
      }
    </style>
  </defs>
  <g id="Layer_2-2" data-name="Layer_2">
    <g>
      <path class="cls-1" d="M356.63,323.52c-.25.01-.51.01-.76.01H57.77c-.36,0-.71-.01-1.07-.02-4.45-.13-8.6-1.11-12.33-2.75-17.25-7.57-25.77-29.23-15.32-47.18l32.51-55.85L178.1,17.52c12.81-22.02,44.62-22.02,57.44,0l112.71,193.63h0s36.34,62.43,36.34,62.43c12.76,21.93-2.78,49.4-27.96,49.94Z"/>
      <circle class="cls-7" cx="348.98" cy="287.5" r="35.02"/>
      <circle class="cls-7" cx="97.77" cy="226.72" r="35.02"/>
      <circle class="cls-7" cx="241.84" cy="226.72" r="35.02"/>
      <circle class="cls-7" cx="133.78" cy="287.5" r="35.02"/>
      <circle class="cls-7" cx="205.82" cy="287.5" r="35.02"/>
      <circle class="cls-7" cx="169.74" cy="103.9" r="35.02"/>
      <circle class="cls-7" cx="278.86" cy="164.99" r="35.02"/>
      <circle class="cls-5" cx="277.86" cy="287.5" r="35.02"/>
      <circle class="cls-5" cx="241.84" cy="103.9" r="35.02"/>
      <circle class="cls-5" cx="205.82" cy="42.47" r="35.02"/>
      <circle class="cls-5" cx="133.78" cy="164.99" r="35.02"/>
      <circle class="cls-5" cx="313.96" cy="226.72" r="35.02"/>
      <circle class="cls-5" cx="169.8" cy="226.72" r="35.02"/>
      <circle class="cls-5" cx="62.75" cy="287.5" r="35.02"/>
      <g>
        <circle class="cls-2" cx="205.82" cy="164.99" r="35.02"/>
        <circle class="cls-4" cx="205.82" cy="164.99" r="17.51"/>
        <text class="cls-3" transform="translate(201.21 171.38)"><tspan x="0" y="0">8</tspan></text>
      </g>
      <path class="cls-6" d="M171.29,293.36c-.04-.27-.09-.55-.13-.82-.08-.53-.14-1.06-.19-1.6-.03-.27-.05-.54-.07-.81-.02-.28-.04-.55-.05-.82-.02-.24-.03-.47-.03-.71-.01-.36-.02-.72-.02-1.09v-.1c-.69-.24-1.36-.48-2.01-.74.01.28.01.56.01.84,0,.3,0,.6-.01.9-.02.56-.04,1.13-.08,1.68,0,.04-.01.07-.01.11-.02.3-.05.6-.08.89-.01.16-.03.31-.05.47-.01.05-.01.1-.02.15v.03c-.02.17-.05.34-.07.52-.03.18-.05.36-.08.54-.03.24-.07.48-.12.72-.05.33-.11.66-.18.99.22-.04.44-.07.66-.1.22-.04.44-.07.67-.09.45-.06.91-.09,1.37-.12.21-.01.42-.02.64-.03-.05-.27-.1-.54-.15-.81ZM171.29,293.36c-.04-.27-.09-.55-.13-.82-.08-.53-.14-1.06-.19-1.6-.03-.27-.05-.54-.07-.81-.02-.28-.04-.55-.05-.82-.02-.24-.03-.47-.03-.71-.01-.36-.02-.72-.02-1.09v-.1c-.69-.24-1.36-.48-2.01-.74.01.28.01.56.01.84,0,.3,0,.6-.01.9-.02.56-.04,1.13-.08,1.68,0,.04-.01.07-.01.11-.02.3-.05.6-.08.89-.01.16-.03.31-.05.47-.01.05-.01.1-.02.15v.03c-.02.17-.05.34-.07.52-.03.18-.05.36-.08.54-.03.24-.07.48-.12.72-.05.33-.11.66-.18.99.22-.04.44-.07.66-.1.22-.04.44-.07.67-.09.45-.06.91-.09,1.37-.12.21-.01.42-.02.64-.03-.05-.27-.1-.54-.15-.81ZM171.29,293.36c-.04-.27-.09-.55-.13-.82-.08-.53-.14-1.06-.19-1.6-.03-.27-.05-.54-.07-.81-.02-.28-.04-.55-.05-.82-.02-.24-.03-.47-.03-.71-.01-.36-.02-.72-.02-1.09v-.1c-.69-.24-1.36-.48-2.01-.74.01.28.01.56.01.84,0,.3,0,.6-.01.9-.02.56-.04,1.13-.08,1.68,0,.04-.01.07-.01.11-.02.3-.05.6-.08.89-.01.16-.03.31-.05.47-.01.05-.01.1-.02.15v.03c-.02.17-.05.34-.07.52-.03.18-.05.36-.08.54-.03.24-.07.48-.12.72-.05.33-.11.66-.18.99.22-.04.44-.07.66-.1.22-.04.44-.07.67-.09.45-.06.91-.09,1.37-.12.21-.01.42-.02.64-.03-.05-.27-.1-.54-.15-.81ZM171.29,293.36c-.05-.27-.09-.54-.13-.82-.08-.53-.14-1.06-.19-1.6-.03-.27-.05-.54-.07-.81-.02-.28-.04-.55-.05-.82-.02-.24-.03-.47-.03-.71-.01-.36-.02-.72-.02-1.09v-.1c-.69-.24-1.36-.48-2.01-.74.01.28.01.56.01.84,0,.3,0,.6-.01.9-.02.56-.04,1.13-.08,1.68,0,.04-.01.07-.01.11-.02.3-.05.6-.08.89-.01.16-.03.31-.05.47-.01.05-.01.1-.02.15v.03c-.02.17-.05.34-.07.52-.03.18-.05.36-.08.54-.03.24-.07.48-.12.72-.05.33-.11.66-.18.99.22-.04.44-.07.66-.1.22-.04.44-.07.67-.09.45-.06.91-.09,1.37-.12.21-.01.42-.02.64-.03-.05-.27-.1-.54-.15-.81ZM384.59,273.58l-36.34-62.42c-.33,1.49-.69,2.98-1.06,4.47h0c-2.92,11.55-7.04,22.8-11.97,33.86-1.67,3.74-3.92,6.72-6.56,9.02h0c-6.78,5.94-16.07,7.43-24.37,6.01-5.19-.88-9.98-2.9-13.53-5.66-2.4-1.88-4.74-3.85-7.02-5.88-3.69-3.29-7.24-6.75-10.72-10.28-3.21-3.23-6.35-6.51-9.51-9.75-11.13-11.42-23.84-16.06-39.66-11.96-5.62,1.45-11.25,2.57-16.92,3-.73.06-1.46.11-2.19.14-6.42.28-12.88-.37-19.43-2.45-5.9-1.87-12.58-2.29-18.82-1.91-11.18.69-18.95,8.07-26.54,15.48-1.06,1.04-2.11,2.08-3.16,3.13-5.96,5.96-11.81,12.1-18.18,17.56,0,0-.02.01-.03.02-1.56,1.33-3.15,2.63-4.78,3.87-1.31,1-2.83,1.89-4.48,2.64h-.01c-5.95,2.68-13.71,3.55-20.65,1.47h-.01c-4.73-1.4-9.06-4.17-12.19-8.66h0c-.34-.5-.67-1.01-.97-1.54-.02,0-.01,0-.01,0-.44-.74-.85-1.53-1.22-2.35-3.51-7.82-7.11-15.66-9.77-23.78-.53-1.62-1.03-3.24-1.51-4.87v-.02c-.5-1.66-.97-3.31-1.41-4.98l-32.51,55.85c-10.45,17.95-1.93,39.61,15.32,47.18-.59,2.2-1.04,4.43-1.34,6.72-.1.73.96,1.08,1.42.48,1.38-1.82,2.78-3.64,4.16-5.46,1.68.65,1.35.52,3.04,1.18-.58,2.63-1.15,5.25-1.86,7.85-2.99,11.01-8.76,21.46-8.58,33.11.1,6.35.53,12.7.92,19.05.86.06,1.17.09,1.46.11.3.02.61.05,1.46.11,2.32.31,1.43.19,3.75.5-1.9,24.7.58,48.53,15.68,69.43.38.53,1.3.25,1.22-.51l-1.71-15.91c1.58,2.88,3.42,5.7,5.55,8.47.01.01.01.02.01.03,1.12,2.41,2.32,4.71,3.73,6.9,10.44,16.13,17.29,33.18,19.23,51.86.23,2.25.83,4.46,1.42,6.68,1.69-.03,1.4-.02,3.09-.05l1.8-7.89c.19-.79,1.45-.73,1.54.08.24,2.05.45,3.96.65,5.88,1.21,12.25,5.46,23.34,15.29,32.15,6.23,5.58,12.75,10.88,19.15,16.32,3.3,2.82,6.6,5.65,10.39,8.89.58.51,1.53-.04,1.27-.73-1.07-3.01-2.05-5.74-3-8.37,1.19-.56.88-.42,2.07-.98,4.69,5.63,9.59,11.15,13.43,17.21,4.07,6.42,6.94,13.46,10.13,20.33,1.47-.2,1.28-.18,2.75-.38,1.24-11.53,2.48-23.08,3.76-34.88.07-.72,1.15-.89,1.48-.23,10.03,19.81,18.68,39.8,20.26,61.76.05.78,1.25.92,1.51.17,4.56-13.05,9.13-26.11,13.69-39.16,1.57.22,1.15.16,2.72.38v13.45c1.41.32,1.22.28,2.63.6,6.36-10.46,8.78-22.46,13.65-33.5,1.12-1.3,2.2-2.61,3.24-3.94.68.19.76.22,2.18.63-2.05,10.57-4.11,21.15-6.17,31.72,1.55.59,1.3.5,2.85,1.09,11.06-14.1,19.39-29.5,25.29-46.23.25-.71,1.37-.64,1.51.1.6,3.2,1.02,6.41,1.01,9.61-.02,3.48-.57,6.96-1.05,10.81-.08.67.83,1.06,1.35.56,8.56-8.32,16.65-16.43,22.64-26.06,5.63-9.07,8.08-19.05,10.02-29.08.15-.77,1.35-.79,1.53-.03l2.24,9.64c.08.32.42.53.78.48l.28-.05c.22-.04.41-.17.51-.35.31-.62.67-1.22.82-1.86.46-1.94.87-3.9,1.18-5.87,2.15-13.79,4.78-27.44,11.92-40.04,7.83-13.83,18.16-26.62,21.29-42.42.2-.43.4-.85.6-1.28h.05c.37.1.61.42.58.77-.74,7.03-1.46,14.07-2.2,21.1,1.5.34,1.08.24,2.57.58,4.01-8.81,8.26-17.56,11.44-26.61,4.7-13.37,2.82-27.36,2.56-41.13-.03-1.49-.04-2.97-.04-4.46,1.72-.17,1.14-.12,2.86-.29.75,3.05,1.5,6.15,2.28,9.33.47-.6.88-.9.93-1.24,1.68-10.51,3.31-21.11.64-31.61-2.45-9.65-5.79-19.11-8.62-28.69-.38-1.33-.62-2.69-.83-4.06h3.91c1.24,1.64,2.46,3.29,3.69,4.94.44.58,1.43.29,1.43-.41,0-.88-.12-1.71-.32-2.53-.16-.67-.33-1.34-.51-2.01,25.18-.54,40.72-28.01,27.96-49.94ZM239.96,279.7c1.13.61,2.26,1.25,3.38,1.92.61.35,1.2.72,1.8,1.09-.68.45-1.39.88-2.13,1.29-.72.41-1.47.8-2.25,1.18-18.94,9.18-51.76,8.42-69.96,2.23-.69-.24-1.36-.48-2.01-.74-3.07-1.19-5.64-2.55-7.52-4.06,2.1-1.41,4.24-2.71,6.42-3.88,1.63-.89,3.28-1.71,4.95-2.46,21.24-9.55,45.32-8.41,67.32,3.43ZM171.29,293.36c-.04-.27-.09-.55-.13-.82-.08-.53-.14-1.06-.19-1.6-.03-.27-.05-.54-.07-.81-.02-.28-.04-.55-.05-.82-.02-.24-.03-.47-.03-.71-.01-.36-.02-.72-.02-1.09v-.1c-.69-.24-1.36-.48-2.01-.74.01.28.01.56.01.84,0,.3,0,.6-.01.9-.02.56-.04,1.13-.08,1.68,0,.04-.01.07-.01.11-.02.3-.05.6-.08.89-.01.16-.03.31-.05.47-.01.05-.01.1-.02.15v.03c-.02.17-.05.34-.07.52-.03.18-.05.36-.08.54-.03.24-.07.48-.12.72-.05.33-.11.66-.18.99.22-.04.44-.07.66-.1.22-.04.44-.07.67-.09.45-.06.91-.09,1.37-.12.21-.01.42-.02.64-.03-.05-.27-.1-.54-.15-.81ZM171.29,293.36c-.04-.27-.09-.55-.13-.82-.08-.53-.14-1.06-.19-1.6-.03-.27-.05-.54-.07-.81-.02-.28-.04-.55-.05-.82-.02-.24-.03-.47-.03-.71-.01-.36-.02-.72-.02-1.09v-.1c-.69-.24-1.36-.48-2.01-.74.01.28.01.56.01.84,0,.3,0,.6-.01.9-.02.56-.04,1.13-.08,1.68,0,.04-.01.07-.01.11-.02.3-.05.6-.08.89-.01.16-.03.31-.05.47-.01.05-.01.1-.02.15v.03c-.02.17-.05.34-.07.52-.03.18-.05.36-.08.54-.03.24-.07.48-.12.72-.05.33-.11.66-.18.99.22-.04.44-.07.66-.1.22-.04.44-.07.67-.09.45-.06.91-.09,1.37-.12.21-.01.42-.02.64-.03-.05-.27-.1-.54-.15-.81ZM171.29,293.36c-.04-.27-.09-.55-.13-.82-.08-.53-.14-1.06-.19-1.6-.03-.27-.05-.54-.07-.81-.02-.28-.04-.55-.05-.82-.02-.24-.03-.47-.03-.71-.01-.36-.02-.72-.02-1.09v-.1c-.69-.24-1.36-.48-2.01-.74.01.28.01.56.01.84,0,.3,0,.6-.01.9-.02.56-.04,1.13-.08,1.68,0,.04-.01.07-.01.11-.02.3-.05.6-.08.89-.01.16-.03.31-.05.47-.01.05-.01.1-.02.15v.03c-.02.17-.05.34-.07.52-.03.18-.05.36-.08.54-.03.24-.07.48-.12.72-.05.33-.11.66-.18.99.22-.04.44-.07.66-.1.22-.04.44-.07.67-.09.45-.06.91-.09,1.37-.12.21-.01.42-.02.64-.03-.05-.27-.1-.54-.15-.81ZM171.29,293.36c-.04-.27-.09-.55-.13-.82-.08-.53-.14-1.06-.19-1.6-.03-.27-.05-.54-.07-.81-.02-.28-.04-.55-.05-.82-.02-.24-.03-.47-.03-.71-.01-.36-.02-.72-.02-1.09v-.1c-.69-.24-1.36-.48-2.01-.74.01.28.01.56.01.84,0,.3,0,.6-.01.9-.02.56-.04,1.13-.08,1.68,0,.04-.01.07-.01.11-.02.3-.05.6-.08.89-.01.16-.03.31-.05.47-.01.05-.01.1-.02.15v.03c-.02.17-.05.34-.07.52-.03.18-.05.36-.08.54-.03.24-.07.48-.12.72-.05.33-.11.66-.18.99.22-.04.44-.07.66-.1.22-.04.44-.07.67-.09.45-.06.91-.09,1.37-.12.21-.01.42-.02.64-.03-.05-.27-.1-.54-.15-.81Z"/>
      <path class="cls-6" d="M405.98,351.99c-.07.48-.6.89-1.2,1.75-1-4.5-1.96-8.86-2.92-13.17-2.21.25-1.46.16-3.68.41,0,2.09.01,4.19.05,6.29.34,19.44,2.75,39.17-3.28,58.05-4.08,12.77-9.54,25.11-14.69,37.55-1.92-.47-1.38-.34-3.3-.82.93-9.92,1.87-19.85,2.81-29.78.04-.49-.27-.94-.74-1.06l-.5-.13c-3.6,23.18-17.34,41.7-27.69,61.77-9.17,17.79-12.55,37.05-15.31,56.52-.4,2.78-.92,5.54-1.51,8.28-.19.9-.66,1.75-1.06,2.62-.12.26-.36.45-.64.5l-.38.06c-.45.09-.9-.21-.99-.67l-2.88-13.6c-.23-1.08-1.77-1.05-1.96.03-2.5,14.16-5.65,28.25-12.88,41.04-7.69,13.6-18.1,25.05-29.08,36.79-.66.7-1.84.16-1.73-.8.61-5.43,1.32-10.34,1.34-15.25.02-4.52-.52-9.05-1.3-13.56-.18-1.04-1.62-1.14-1.94-.14-7.58,23.61-18.28,45.34-32.49,65.24-1.99-.84-1.66-.7-3.65-1.54,2.64-14.92,5.29-29.84,7.94-44.77-2.55-.8-1.78-.56-4.33-1.36-8.17,17.14-10.95,36.62-20.18,53.32-1.82-.46-1.57-.4-3.39-.86v-18.98c-2.01-.31-1.47-.22-3.48-.53-5.86,18.42-11.72,36.84-17.59,55.27-.33,1.05-1.87.86-1.94-.25-2.03-30.98-13.14-59.2-26.02-87.16-.43-.93-1.81-.68-1.91.33-1.64,16.66-3.24,32.95-4.83,49.22-1.89.29-1.64.25-3.53.54-4.11-9.69-7.79-19.63-13.01-28.68-4.94-8.57-11.24-16.35-17.26-24.29-1.52.79-1.13.59-2.65,1.38,1.21,3.71,2.47,7.56,3.85,11.8.32.99-.89,1.75-1.64,1.04-4.87-4.58-9.1-8.57-13.35-12.55-8.21-7.67-16.6-15.16-24.6-23.03-12.62-12.43-18.08-28.09-19.64-45.37-.25-2.71-.53-5.41-.83-8.31-.12-1.13-1.74-1.22-1.98-.1l-2.31,11.14c-2.17.03-1.8.03-3.97.06-.76-3.13-1.52-6.25-1.82-9.43-2.49-26.36-11.29-50.41-24.71-73.18-4.15-7.06-6.85-14.97-10.13-23.58-.42-1.09-2.05-.71-1.94.45l2.34,23.85c.1,1.06-1.08,1.47-1.58.71-19.39-29.49-22.57-63.12-20.13-97.98-2.97-.43-1.84-.27-4.81-.7-1.1-.09-1.49-.12-1.88-.16-.39-.03-.78-.06-1.88-.16-.5-8.96-1.06-17.92-1.19-26.88-.22-16.44,7.19-31.18,11.03-46.72.91-3.66,1.65-7.38,2.39-11.09-2.16-.92-1.74-.74-3.9-1.66-1.78,2.57-3.57,5.14-5.35,7.71-.59.85-1.94.35-1.82-.68,1.23-10.38,4.54-20.05,9-29.35,2.42-5.05,4.95-10.15,8.15-14.71,5-7.11,9.15-14.52,12.64-22.18h0c.14-.31.27-.6.4-.9l22.11-23.63,72.73-77.69,3.12-1.14-69.33,119.11h0c.13.5.26.99.39,1.48l-32.51,55.85c-10.45,17.95-1.93,39.61,15.32,47.18-.59,2.2-1.04,4.43-1.34,6.72-.1.73.96,1.08,1.42.48,1.38-1.82,2.78-3.64,4.16-5.46,1.68.65,1.35.52,3.04,1.18-.58,2.63-1.15,5.25-1.86,7.85-2.99,11.01-8.76,21.46-8.58,33.11.1,6.35.53,12.7.92,19.05.86.06,1.17.09,1.46.11.3.02.61.05,1.46.11,2.32.31,1.43.19,3.75.5-1.9,24.7.58,48.53,15.68,69.43.38.53,1.3.25,1.22-.51l-1.71-15.91c1.58,2.88,3.42,5.7,5.55,8.47.01.01.01.02.01.03,1.12,2.41,2.32,4.71,3.73,6.9,10.44,16.13,17.29,33.18,19.23,51.86.23,2.25.83,4.46,1.42,6.68,1.69-.03,1.4-.02,3.09-.05l1.8-7.89c.19-.79,1.45-.73,1.54.08.24,2.05.45,3.96.65,5.88,1.21,12.25,5.46,23.34,15.29,32.15,6.23,5.58,12.75,10.88,19.15,16.32,3.3,2.82,6.6,5.65,10.39,8.89.58.51,1.53-.04,1.27-.73-1.07-3.01-2.05-5.74-3-8.37,1.19-.56.88-.42,2.07-.98,4.69,5.63,9.59,11.15,13.43,17.21,4.07,6.42,6.94,13.46,10.13,20.33,1.47-.2,1.28-.18,2.75-.38,1.24-11.53,2.48-23.08,3.76-34.88.07-.72,1.15-.89,1.48-.23,10.03,19.81,18.68,39.8,20.26,61.76.05.78,1.25.92,1.51.17,4.56-13.05,9.13-26.11,13.69-39.16,1.57.22,1.15.16,2.72.38v13.45c1.41.32,1.22.28,2.63.6,6.36-10.46,8.78-22.46,13.65-33.5,1.12-1.3,2.2-2.61,3.24-3.94.68.19.76.22,2.18.63-2.05,10.57-4.11,21.15-6.17,31.72,1.55.59,1.3.5,2.85,1.09,11.06-14.1,19.39-29.5,25.29-46.23.25-.71,1.37-.64,1.51.1.6,3.2,1.02,6.41,1.01,9.61-.02,3.48-.57,6.96-1.05,10.81-.08.67.83,1.06,1.35.56,8.56-8.32,16.65-16.43,22.64-26.06,5.63-9.07,8.08-19.05,10.02-29.08.15-.77,1.35-.79,1.53-.03l2.24,9.64c.08.32.42.53.78.48l.28-.05c.22-.04.41-.17.51-.35.31-.62.67-1.22.82-1.86.46-1.94.87-3.9,1.18-5.87,2.15-13.79,4.78-27.44,11.92-40.04,7.83-13.83,18.16-26.62,21.29-42.42.2-.43.4-.85.6-1.28h.05c.37.1.61.42.58.77-.74,7.03-1.46,14.07-2.2,21.1,1.5.34,1.08.24,2.57.58,4.01-8.81,8.26-17.56,11.44-26.61,4.7-13.37,2.82-27.36,2.56-41.13-.03-1.49-.04-2.97-.04-4.46,1.72-.17,1.14-.12,2.86-.29.75,3.05,1.5,6.15,2.28,9.33.47-.6.88-.9.93-1.24,1.68-10.51,3.31-21.11.64-31.61-2.45-9.65-5.79-19.11-8.62-28.69-.38-1.33-.62-2.69-.83-4.06h3.91c1.24,1.64,2.46,3.29,3.69,4.94.44.58,1.43.29,1.43-.41,0-.88-.12-1.71-.32-2.53-.16-.67-.33-1.34-.51-2.01,25.18-.54,40.72-28.01,27.96-49.94l-36.34-62.42h0c.19-.85.38-1.69.55-2.54l-61.95-106.42,3.12,1.14,21.08,22.51-1.19-.21,42.8,50.71,27.91,33.07.02.03c.18.33.36.66.53.98,2.24,4.04,4.66,8.01,7.28,11.9,8.54,12.67,14.16,26.72,17.45,41.66.25,1.15.42,2.32.42,3.57,0,.99-1.28,1.39-1.83.57-1.99-2.91-3.97-5.82-5.95-8.73-2.1.81-1.77.68-3.88,1.49.29,2.03.6,4.05,1.13,6.01,3.62,13.51,7.91,26.87,11.06,40.49,3.43,14.81,1.34,29.77-.82,44.61Z"/>
      <path class="cls-6" d="M381.27,210.24l-.15.18c-.17-.32-.35-.65-.53-.98l.68.8Z"/>
      <path class="cls-4" d="M357.88,356.28c-2.45-9.65-5.79-19.11-8.62-28.69-.38-1.33-.62-2.69-.83-4.06-.01-.06-.02-.13-.03-.19,1.4-.5,1.41-.5,2.43-.86h.01c.16-.06.34-.12.57-.2.04.05.08.11.12.16.27.36.55.73.81,1.09,1.24,1.64,2.46,3.29,3.69,4.94.44.58,1.43.29,1.43-.41,0-.88-.12-1.71-.32-2.53-.16-.67-.33-1.34-.51-2.01-.15-.57-.31-1.15-.48-1.72-2.64-9.2-6.73-17.87-12.6-25.79-.96-1.3-1.9-2.62-2.79-3.94h-29.52c-1.75,6.16-4.04,12.19-6.72,18.14h0c-.07.16-.13.31-.2.45-.69,1.54-1.42,3.07-2.16,4.59-.18.37-.37.72-.57,1.07-1.85,3.26-4.43,5.61-7.4,7.21-7.41,4-17.2,3.26-23.86,0-1.01-.49-1.94-1.04-2.79-1.64-.8-.57-1.59-1.15-2.37-1.73h-.01c-6.42-4.86-12.22-10.43-18.05-15.89-.26-.24-.52-.49-.78-.73-2.29-2.14-4.66-3.94-7.14-5.37-6.92-4.03-14.67-5.25-23.73-3.11-9.89,2.33-19.81,3.43-30.01.49-4.4-1.26-9.35-1.59-14.01-1.38-.22,0-.43.02-.64.03-.46.03-.92.06-1.37.12-.23.02-.45.05-.67.09-.22.03-.44.06-.66.1-7.29,1.29-12.69,5.96-17.95,10.65-6.57,5.84-12.79,12.11-20.02,17.18-.11.08-.23.16-.34.24-.48.34-1,.65-1.55.95-6.07,3.29-15.77,4.1-22.76,0-2.66-1.56-4.94-3.83-6.47-6.94-1.96-3.97-3.96-7.95-5.69-12.01-.69-1.6-1.33-3.21-1.92-4.84-.91-2.55-1.73-5.1-2.46-7.67h-29.51c-.96,1.41-1.97,2.81-3.04,4.19-2.5,3.23-4.47,6.84-6.35,10.42-1.91,3.63-3.55,7.34-4.8,11.17-.32.96-.61,1.93-.87,2.91-.59,2.2-1.04,4.43-1.34,6.72-.1.73.96,1.08,1.42.48,1.38-1.82,2.78-3.64,4.16-5.46,1.68.65,1.35.52,3.04,1.18-.58,2.63-1.15,5.25-1.86,7.85-2.99,11.01-8.76,21.46-8.58,33.11.1,6.35.53,12.7.92,19.05.86.06,1.17.09,1.46.11.3.02.61.05,1.46.11,2.32.31,1.43.19,3.75.5-1.9,24.7.58,48.53,15.68,69.43.38.53,1.3.25,1.22-.51l-1.71-15.91-.11-.99c-.08-.82,1.19-1.09,1.51-.32,1.43,3.42,2.72,6.69,4.15,9.78.01.01.01.02.01.03,1.12,2.41,2.32,4.71,3.73,6.9,10.44,16.13,17.29,33.18,19.23,51.86.23,2.25.83,4.46,1.42,6.68,1.69-.03,1.4-.02,3.09-.05l1.8-7.89c.19-.79,1.45-.73,1.54.08.24,2.05.45,3.96.65,5.88,1.21,12.25,5.46,23.34,15.29,32.15,6.23,5.58,12.75,10.88,19.15,16.32,3.3,2.82,6.6,5.65,10.39,8.89.58.51,1.53-.04,1.27-.73-1.07-3.01-2.05-5.74-3-8.37,1.19-.56.88-.42,2.07-.98,4.69,5.63,9.59,11.15,13.43,17.21,4.07,6.42,6.94,13.46,10.13,20.33,1.47-.2,1.28-.18,2.75-.38,1.24-11.53,2.48-23.08,3.76-34.88.07-.72,1.15-.89,1.48-.23,10.03,19.81,18.68,39.8,20.26,61.76.05.78,1.25.92,1.51.17,4.56-13.05,9.13-26.11,13.69-39.16,1.57.22,1.15.16,2.72.38v13.45c1.41.32,1.22.28,2.63.6,6.36-10.46,8.78-22.46,13.65-33.5.64-1.44,1.32-2.87,2.06-4.28.56.16.92.27,1.18.34.68.19.76.22,2.18.63-2.05,10.57-4.11,21.15-6.17,31.72,1.55.59,1.3.5,2.85,1.09,11.06-14.1,19.39-29.5,25.29-46.23.25-.71,1.37-.64,1.51.1.6,3.2,1.02,6.41,1.01,9.61-.02,3.48-.57,6.96-1.05,10.81-.08.67.83,1.06,1.35.56,8.56-8.32,16.65-16.43,22.64-26.06,5.63-9.07,8.08-19.05,10.02-29.08.15-.77,1.35-.79,1.53-.03l2.24,9.64c.08.32.42.53.78.48l.28-.05c.22-.04.41-.17.51-.35.31-.62.67-1.22.82-1.86.46-1.94.87-3.9,1.18-5.87,2.15-13.79,4.78-27.44,11.92-40.04,7.83-13.83,18.16-26.62,21.29-42.42.1-.45.18-.9.26-1.36l.34.08h.05c.37.1.61.42.58.77-.74,7.03-1.46,14.07-2.2,21.1,1.5.34,1.08.24,2.57.58,4.01-8.81,8.26-17.56,11.44-26.61,4.7-13.37,2.82-27.36,2.56-41.13-.03-1.49-.04-2.97-.04-4.46,1.72-.17,1.14-.12,2.86-.29.75,3.05,1.5,6.15,2.28,9.33.47-.6.88-.9.93-1.24,1.68-10.51,3.31-21.11.64-31.61Z"/>
      <path class="cls-8" d="M347.64,364.88c-2.31-8.14-5.46-16.13-8.13-24.22-.38-1.18-.61-2.38-.82-3.59,1.55-.49,1.3-.41,2.84-.9,1.47,1.74,2.92,3.48,4.37,5.23.41.49,1.35.25,1.35-.34,0-.75-.12-1.45-.3-2.14-1.45-5.34-3.5-10.49-6.27-15.39-.44-.8-.91-1.58-1.39-2.36-1.53-2.46-3.25-4.86-5.17-7.18-.92-1.1-1.8-2.21-2.64-3.33h-27.87c-.1.3-.2.61-.31.91h0c-.51,1.6-1.08,3.18-1.71,4.75-.93,2.42-1.98,4.83-3.12,7.21-1.07,2.25-2.22,4.49-3.44,6.71-6.36,11.6-24.27,10.95-32.68,5.61-5.82-3.69-11.07-7.99-16.24-12.32-1.27-1.06-2.53-2.12-3.79-3.18-3.99-3.33-8.25-5.7-12.91-6.96-4.91-1.34-10.28-1.46-16.24-.2-9.34,1.97-18.7,2.9-28.33.41-.99-.25-2.02-.46-3.06-.63-3.51-.57-7.24-.68-10.78-.51-8.21.41-13.93,4.83-19.5,9.26-.75.6-1.5,1.2-2.25,1.81-5.48,4.47-10.84,9.1-16.97,12.9-7.45,4.62-23.46,5.11-29.06-5.06-1.44-2.6-2.9-5.21-4.23-7.84-1.08-2.1-2.08-4.23-2.95-6.39-.86-2.15-1.64-4.3-2.32-6.48h-27.87c-.91,1.2-1.86,2.38-2.87,3.54-2.14,2.47-3.86,5.2-5.48,7.94-.17.29-.34.57-.51.86-.1.17-.2.34-.29.51-3.14,5.41-5.46,11.03-6.33,17.06-.1.61.9.91,1.34.4,1.3-1.54,2.62-3.07,3.93-4.61,1.58.55,1.27.44,2.86,1-.54,2.22-1.08,4.43-1.75,6.63-2.82,9.29-8.27,18.12-8.1,27.95.09,5.37.49,10.73.87,16.09.81.05,1.1.08,1.38.09.28.02.57.04,1.38.1,2.18.26,1.34.16,3.53.42-1.47,17.07-.16,33.65,8.18,48.78,1.58,2.88,3.42,5.7,5.55,8.47.01.01.01.02.01.03.36.45.71.89,1.07,1.34s1.23.22,1.15-.43l-1.71-14.27c-.09-.69,1.12-.92,1.42-.27,2.4,5.15,4.39,9.89,7.44,14.11,9.87,13.62,16.33,28.02,18.17,43.79.21,1.9.77,3.77,1.33,5.64,1.6-.02,1.32-.01,2.92-.04l1.7-6.66c.18-.67,1.37-.62,1.45.07.23,1.73.43,3.34.61,4.96,1.16,10.35,5.16,19.71,14.44,27.15,5.89,4.71,12.05,9.19,18.08,13.78,3.13,2.38,6.24,4.77,9.82,7.51.55.43,1.44-.04,1.2-.62-1.02-2.54-1.94-4.85-2.83-7.07,1.12-.47.83-.35,1.95-.82,4.43,4.75,9.05,9.41,12.68,14.53,3.84,5.42,6.55,11.36,9.57,17.16,1.38-.16,1.2-.15,2.59-.32,1.17-9.73,2.35-19.48,3.55-29.45.07-.61,1.09-.75,1.4-.19,9.47,16.72,17.63,33.6,19.13,52.15.05.66,1.18.77,1.43.14,4.3-11.02,8.62-22.05,12.92-33.07,1.49.19,1.08.14,2.56.32v11.36c1.34.27,1.16.24,2.49.51,6.79-9.99,8.83-21.64,14.84-31.9,1.87.48,1.3.33,3.17.82-1.94,8.92-3.89,17.86-5.83,26.78,1.46.5,1.23.42,2.69.92.42-.48.83-.96,1.24-1.44,1.12-1.3,2.2-2.61,3.24-3.94,8.25-10.41,14.66-21.63,19.4-33.66.23-.6,1.29-.54,1.43.09.56,2.7.96,5.41.95,8.11-.02,2.94-.54,5.88-.99,9.13-.08.57.78.9,1.27.47,8.08-7.02,15.73-13.87,21.38-22,5.31-7.66,7.62-16.09,9.46-24.56.15-.65,1.28-.66,1.44-.02l2.12,8.14c.07.27.39.45.73.4l.27-.04c.21-.03.39-.14.48-.29.29-.53.63-1.03.78-1.57.44-1.64.82-3.3,1.11-4.96,2.03-11.65,4.51-23.17,11.25-33.81,7.61-12.02,17.71-23.1,20.36-36.97l.36.08c.35.07.58.34.55.64-.7,5.93-1.38,11.88-2.08,17.82,1.41.28,1.02.2,2.43.49,2.52-4.94,5.13-9.86,7.48-14.84.2-.43.4-.85.6-1.28.97-2.1,1.88-4.22,2.72-6.35,4.44-11.29,2.66-23.11,2.42-34.73-.04-1.26-.05-2.51-.05-3.77,1.63-.14,1.08-.1,2.71-.25.71,2.58,1.41,5.2,2.15,7.88.44-.5.83-.76.88-1.04,1.59-8.88,3.12-17.83.6-26.7Z"/>
      <path class="cls-6" d="M128.69,270.47c3.22,0,3.22-5,0-5s-3.22,5,0,5h0Z"/>
    </g>
  </g>
</svg>